<svg xmlns="http://www.w3.org/2000/svg" width="48" height="48" viewBox="0 0 48 48" fill="none"><path d="M36.3136 18C35.6927 16.8751 35.1632 15.6586 35.0027 14.0526C34.5653 9.67646 37.0134 7.42105 37.0134 3C31.5051 3 17.5147 3 11.0071 3C11.0071 7.42105 13.4552 9.68911 13.0178 14.0526C12.599 18.2301 9.65062 19.7909 9.14954 24C8.52083 29.2811 10.0194 31.0309 10.9585 36.1579C11.5966 39.641 12.8647 45 12.8647 45H35.1558C35.1558 45 36.4239 39.641 37.062 36.1579C37.233 35.2244 37.5 34.5 38 33" stroke="#F7FBFF" stroke-width="3" stroke-linecap="round" stroke-linejoin="round"></path><line x1="23.5" y1="43.5" x2="23.5" y2="32.5" stroke="#F7FBFF" stroke-width="3" stroke-linecap="round"></line><circle cx="36.5" cy="25.5" r="7.5" stroke="#F7FBFF" stroke-width="3"></circle><line x1="36.5" y1="22.5" x2="36.5" y2="28.5" stroke="#F7FBFF" stroke-width="3" stroke-linecap="round"></line><line x1="39.5" y1="25.5" x2="33.5" y2="25.5" stroke="#F7FBFF" stroke-width="3" stroke-linecap="round"></line></svg>