<svg xmlns="http://www.w3.org/2000/svg" width="48" height="48" viewBox="0 0 48 48" fill="none"><path d="M23.874 7L22.4213 7.37389L22.7112 8.5H23.874V7ZM12.014 12.3365L12.5103 13.752L13.6051 13.3681L13.5088 12.212L12.014 12.3365ZM8.80528 21.0045L9.88854 22.042L10.6685 21.2278L10.103 20.2523L8.80528 21.0045ZM11.0292 31.5139L12.5183 31.6943L12.6556 30.5609L11.5998 30.1267L11.0292 31.5139ZM13.174 35.5598L14.6304 35.9186L14.914 34.7676L13.8597 34.2257L13.174 35.5598ZM23.828 40.563L22.6218 39.6714L22.6218 39.6714L23.828 40.563ZM16.2489 14.1011C16.966 14.5159 17.8836 14.2709 18.2984 13.5538C18.7132 12.8367 18.4682 11.9191 17.7511 11.5043L16.2489 14.1011ZM24.126 7V8.5H25.2888L25.5787 7.37389L24.126 7ZM35.986 12.3365L34.4912 12.212L34.3949 13.3681L35.4897 13.752L35.986 12.3365ZM39.1952 21.0036L37.8973 20.2516L37.3328 21.226L38.1109 22.0401L39.1952 21.0036ZM40.7785 27.1823L42.2274 27.5706L40.7785 27.1823ZM36.9706 31.5125L36.3995 30.1255L35.3439 30.5602L35.4815 31.6935L36.9706 31.5125ZM34.826 35.5598L34.1403 34.2257L33.086 34.7676L33.3696 35.9186L34.826 35.5598ZM24.172 40.563L25.3782 39.6714V39.6714L24.172 40.563ZM32.7518 10.6036C31.9348 10.7407 31.3836 11.5141 31.5207 12.3311C31.6577 13.1482 32.4312 13.6994 33.2482 13.5623L32.7518 10.6036ZM22.7511 30.7016C22.034 30.2868 21.1164 30.5318 20.7016 31.2489C20.2868 31.966 20.5318 32.8836 21.2489 33.2984L22.7511 30.7016ZM24 33.8795L22.7509 34.71L24 36.5887L25.2491 34.71L24 33.8795ZM21.7863 13.7226C21.0808 13.2883 20.1569 13.5082 19.7226 14.2137C19.2883 14.9192 19.5082 15.8431 20.2137 16.2774L21.7863 13.7226ZM22.7279 18.7948C23.1669 19.4974 24.0923 19.7111 24.7948 19.2721C25.4974 18.8331 25.7111 17.9077 25.2721 17.2052L22.7279 18.7948ZM26.7511 33.2984C27.4682 32.8836 27.7132 31.966 27.2984 31.2489C26.8836 30.5318 25.966 30.2868 25.2489 30.7016L26.7511 33.2984ZM26.7511 12.2984C27.4682 11.8836 27.7132 10.966 27.2984 10.2489C26.8836 9.53182 25.966 9.28678 25.2489 9.70159L26.7511 12.2984ZM22.7509 12.049C22.2922 12.7389 22.4796 13.6699 23.1695 14.1286C23.8593 14.5873 24.7904 14.3999 25.2491 13.71L22.7509 12.049ZM14 33.5C14.8284 33.5 15.5 32.8284 15.5 32C15.5 31.1716 14.8284 30.5 14 30.5V33.5ZM9.3578 22.8646C9.8353 22.1876 9.67361 21.2518 8.99665 20.7742C8.31968 20.2967 7.3838 20.4584 6.90629 21.1354L9.3578 22.8646ZM33.6889 30.459C32.8887 30.2446 32.0662 30.7195 31.8518 31.5197C31.6373 32.3199 32.1122 33.1424 32.9124 33.3568L33.6889 30.459ZM42.3873 26.974C42.6017 26.1738 42.1268 25.3512 41.3266 25.1368C40.5264 24.9224 39.7039 25.3973 39.4895 26.1975L42.3873 26.974ZM17.494 9.99523C18.1577 10.4911 19.0976 10.3551 19.5935 9.69141C20.0893 9.02777 19.9533 8.08781 19.2897 7.59196L17.494 9.99523ZM28.7103 7.59196C28.0467 8.08781 27.9107 9.02777 28.4065 9.69141C28.9024 10.3551 29.8423 10.4911 30.506 9.99523L28.7103 7.59196ZM23.874 8.5H24V5.5H23.874V8.5ZM20 5.5C21.1628 5.5 22.1437 6.2953 22.4213 7.37389L25.3266 6.62611C24.7162 4.25425 22.5648 2.5 20 2.5V5.5ZM17.5 8C17.5 6.61929 18.6193 5.5 20 5.5V2.5C16.9624 2.5 14.5 4.96243 14.5 8H17.5ZM13.5 12C13.5 10.6193 14.6193 9.5 16 9.5V6.5C12.9624 6.5 10.5 8.96243 10.5 12H13.5ZM13.5088 12.212C13.503 12.1424 13.5 12.0717 13.5 12H10.5C10.5 12.1549 10.5064 12.3087 10.5191 12.461L13.5088 12.212ZM9.5 18C9.5 16.0391 10.7551 14.3675 12.5103 13.752L11.5176 10.921C8.59749 11.945 6.5 14.7256 6.5 18H9.5ZM10.103 20.2523C9.71984 19.5911 9.5 18.8235 9.5 18H6.5C6.5 19.3659 6.8665 20.6508 7.50752 21.7567L10.103 20.2523ZM8.5 25.5C8.5 24.1576 9.02701 22.9415 9.88854 22.042L7.72203 19.9669C6.34708 21.4024 5.5 23.3538 5.5 25.5H8.5ZM11.5998 30.1267C9.77811 29.3775 8.5 27.5862 8.5 25.5H5.5C5.5 28.8441 7.55141 31.7055 10.4587 32.9012L11.5998 30.1267ZM12.5 32C12.5 31.8959 12.5063 31.7939 12.5183 31.6943L9.54012 31.3336C9.51359 31.5526 9.5 31.775 9.5 32H12.5ZM13.8597 34.2257C13.0491 33.8091 12.5 32.9674 12.5 32H9.5C9.5 34.1352 10.717 35.9835 12.4882 36.8939L13.8597 34.2257ZM11.7175 35.201C11.5751 35.7789 11.5 36.3817 11.5 37H14.5C14.5 36.6254 14.5454 36.2635 14.6304 35.9186L11.7175 35.201ZM11.5 37C11.5 41.1421 14.8579 44.5 19 44.5V41.5C16.5147 41.5 14.5 39.4853 14.5 37H11.5ZM19 44.5C21.4755 44.5 23.6707 43.2992 25.0342 41.4547L22.6218 39.6714C21.7996 40.7836 20.4836 41.5 19 41.5V44.5ZM25.0342 41.4547C25.109 41.3535 25.1808 41.251 25.2496 41.1474L22.7504 39.488C22.7095 39.5495 22.6667 39.6107 22.6218 39.6714L25.0342 41.4547ZM9.5 18C9.5 15.5147 11.5147 13.5 14 13.5V10.5C9.85786 10.5 6.5 13.8579 6.5 18H9.5ZM14 13.5C14.8221 13.5 15.5885 13.7191 16.2489 14.1011L17.7511 11.5043C16.6464 10.8653 15.3636 10.5 14 10.5V13.5ZM24.126 5.5H24V8.5H24.126V5.5ZM28 2.5C25.4352 2.5 23.2838 4.25425 22.6734 6.62611L25.5787 7.37389C25.8563 6.2953 26.8372 5.5 28 5.5V2.5ZM33.5 8C33.5 4.96243 31.0376 2.5 28 2.5V5.5C29.3807 5.5 30.5 6.61929 30.5 8H33.5ZM37.5 12C37.5 8.96243 35.0376 6.5 32 6.5V9.5C33.3807 9.5 34.5 10.6193 34.5 12H37.5ZM37.4809 12.461C37.4936 12.3087 37.5 12.1549 37.5 12H34.5C34.5 12.0717 34.497 12.1424 34.4912 12.212L37.4809 12.461ZM41.5 18C41.5 14.7256 39.4025 11.945 36.4824 10.921L35.4897 13.752C37.2449 14.3675 38.5 16.0391 38.5 18H41.5ZM40.4931 21.7556C41.1337 20.6499 41.5 19.3655 41.5 18H38.5C38.5 18.8233 38.2803 19.5906 37.8973 20.2516L40.4931 21.7556ZM42.2274 27.5706C42.9782 24.7687 42.143 21.9168 40.2795 19.9672L38.1109 22.0401C39.2807 23.264 39.7981 25.0457 39.3296 26.7941L42.2274 27.5706ZM37.5417 32.8996C39.7643 31.9844 41.5559 30.0767 42.2274 27.5706L39.3296 26.7941C38.9103 28.3591 37.7948 29.551 36.3995 30.1255L37.5417 32.8996ZM38.5 32C38.5 31.7744 38.4863 31.5513 38.4596 31.3316L35.4815 31.6935C35.4937 31.7934 35.5 31.8956 35.5 32H38.5ZM35.5118 36.8939C37.283 35.9835 38.5 34.1352 38.5 32H35.5C35.5 32.9674 34.9509 33.8091 34.1403 34.2257L35.5118 36.8939ZM33.3696 35.9186C33.4546 36.2635 33.5 36.6254 33.5 37H36.5C36.5 36.3817 36.4249 35.7789 36.2825 35.201L33.3696 35.9186ZM33.5 37C33.5 39.4853 31.4853 41.5 29 41.5V44.5C33.1421 44.5 36.5 41.1421 36.5 37H33.5ZM29 41.5C27.5164 41.5 26.2004 40.7836 25.3782 39.6714L22.9658 41.4547C24.3293 43.2992 26.5245 44.5 29 44.5V41.5ZM25.3782 39.6714C25.3333 39.6107 25.2905 39.5495 25.2496 39.488L22.7504 41.1474C22.8192 41.251 22.891 41.3535 22.9658 41.4547L25.3782 39.6714ZM41.5 18C41.5 13.8579 38.1421 10.5 34 10.5V13.5C36.4853 13.5 38.5 15.5147 38.5 18H41.5ZM34 10.5C33.5758 10.5 33.1587 10.5354 32.7518 10.6036L33.2482 13.5623C33.4917 13.5214 33.7428 13.5 34 13.5V10.5ZM21.2489 33.2984C21.8513 33.6469 22.3663 34.1315 22.7509 34.71L25.2491 33.049C24.6097 32.0873 23.7543 31.2819 22.7511 30.7016L21.2489 33.2984ZM20.2137 16.2774C21.2147 16.8936 22.0785 17.7555 22.7279 18.7948L25.2721 17.2052C24.3854 15.7861 23.1936 14.5889 21.7863 13.7226L20.2137 16.2774ZM25.2489 30.7016C24.2457 31.2819 23.3903 32.0873 22.7509 33.049L25.2491 34.71C25.6337 34.1315 26.1487 33.6469 26.7511 33.2984L25.2489 30.7016ZM25.2489 9.70159C24.2457 10.2819 23.3903 11.0873 22.7509 12.049L25.2491 13.71C25.6337 13.1315 26.1487 12.6469 26.7511 12.2984L25.2489 9.70159ZM14 30.5C10.8492 30.5 8.5 28.1657 8.5 25.5294H5.5C5.5 30.0403 9.41884 33.5 14 33.5V30.5ZM8.5 25.5294C8.5 24.5543 8.80996 23.6413 9.3578 22.8646L6.90629 21.1354C6.0222 22.3888 5.5 23.9003 5.5 25.5294H8.5ZM32.9124 33.3568C37.1355 34.4884 41.2202 31.3294 42.3873 26.974L39.4895 26.1975C38.6217 29.4361 35.8674 31.0428 33.6889 30.459L32.9124 33.3568ZM16 9.5C16.5623 9.5 17.0772 9.68383 17.494 9.99523L19.2897 7.59196C18.3722 6.90646 17.2314 6.5 16 6.5V9.5ZM32 6.5C30.7686 6.5 29.6278 6.90646 28.7103 7.59196L30.506 9.99523C30.9228 9.68383 31.4377 9.5 32 9.5V6.5ZM22.5 7V40.3177H25.5V7H22.5Z" fill="#F7FBFF"></path></svg>