<svg xmlns="http://www.w3.org/2000/svg" width="50" height="50" viewBox="0 0 50 50" fill="none"><rect width="50" height="50" rx="25" fill="url(#paint0_linear_455_192)"></rect><path d="M35 29.92V32.92C35.0011 33.1985 34.9441 33.4741 34.8325 33.7293C34.7209 33.9845 34.5573 34.2136 34.3521 34.4018C34.1468 34.5901 33.9046 34.7335 33.6407 34.8227C33.3769 34.9119 33.0974 34.945 32.82 34.92C29.7428 34.5856 26.787 33.5341 24.19 31.85C21.7738 30.3146 19.7253 28.2661 18.19 25.85C16.5 23.2412 15.4482 20.271 15.12 17.18C15.095 16.9034 15.1279 16.6247 15.2165 16.3616C15.3051 16.0985 15.4476 15.8567 15.6348 15.6516C15.822 15.4465 16.0498 15.2827 16.3038 15.1705C16.5578 15.0583 16.8323 15.0002 17.11 15H20.11C20.5953 14.9952 21.0658 15.1671 21.4338 15.4835C21.8017 15.8 22.0421 16.2394 22.11 16.72C22.2366 17.68 22.4714 18.6227 22.81 19.53C22.9445 19.8879 22.9737 20.2769 22.8939 20.6509C22.8141 21.0248 22.6289 21.3681 22.36 21.64L21.09 22.91C22.5135 25.4135 24.5864 27.4864 27.09 28.91L28.36 27.64C28.6319 27.3711 28.9751 27.1858 29.3491 27.1061C29.7231 27.0263 30.1121 27.0554 30.47 27.19C31.3773 27.5285 32.3199 27.7634 33.28 27.89C33.7658 27.9585 34.2094 28.2032 34.5265 28.5775C34.8437 28.9518 35.0122 29.4296 35 29.92Z" stroke="CurrentColor" stroke-width="2" stroke-linecap="round" stroke-linejoin="round" fill="none"></path><defs><linearGradient id="paint0_linear_455_192" x1="25" y1="-3.96748e-07" x2="25" y2="50" gradientUnits="userSpaceOnUse"><stop stop-color="#89A7FF"></stop><stop offset="1" stop-color="#476FE4"></stop></linearGradient></defs></svg>