<svg xmlns="http://www.w3.org/2000/svg" width="128" height="128" viewBox="0 0 128 128" fill="none"><circle cx="64" cy="64" r="64" fill="url(#paint0_linear_422_1210)"></circle><path d="M88.375 37.75H83.6875V36.8125C83.6875 35.2621 82.4254 34 80.875 34C79.3246 34 78.0625 35.2621 78.0625 36.8125V37.75H49.9375V36.8125C49.9375 35.2621 48.6754 34 47.125 34C45.5746 34 44.3125 35.2621 44.3125 36.8125V37.75H39.625C37.5566 37.75 35.875 39.4328 35.875 41.5V80.875C35.875 82.9422 37.5566 84.625 39.625 84.625H52.75C53.268 84.625 53.6875 84.2055 53.6875 83.6875C53.6875 83.1695 53.268 82.75 52.75 82.75H39.625C38.5914 82.75 37.75 81.9086 37.75 80.875V49H90.25V80.875C90.25 81.9086 89.4086 82.75 88.375 82.75H78.0625C77.5445 82.75 77.125 83.1695 77.125 83.6875C77.125 84.2055 77.5445 84.625 78.0625 84.625H88.375C90.4434 84.625 92.125 82.9422 92.125 80.875C92.125 79.1593 92.125 43.3839 92.125 41.5C92.125 39.4328 90.4434 37.75 88.375 37.75ZM79.9375 36.8125C79.9375 36.2957 80.3582 35.875 80.875 35.875C81.3918 35.875 81.8125 36.2957 81.8125 36.8125V41.5C81.8125 42.0168 81.3918 42.4375 80.875 42.4375C80.3582 42.4375 79.9375 42.0168 79.9375 41.5C79.9375 39.8707 79.9375 38.4368 79.9375 36.8125ZM46.1875 36.8125C46.1875 36.2957 46.6082 35.875 47.125 35.875C47.6418 35.875 48.0625 36.2957 48.0625 36.8125V41.5C48.0625 42.0168 47.6418 42.4375 47.125 42.4375C46.6082 42.4375 46.1875 42.0168 46.1875 41.5C46.1875 39.8707 46.1875 38.4368 46.1875 36.8125Z" fill="#476FE4"></path><path d="M79.9375 73.375C79.9375 70.273 77.4145 67.75 74.3125 67.75C71.2105 67.75 68.6875 70.273 68.6875 73.375C68.6875 76.1582 70.7184 78.475 73.375 78.9215V84.1562C73.375 88.5508 69.8008 92.125 65.4062 92.125C61.0117 92.125 57.4375 88.5508 57.4375 84.1562V78.9467C61.6502 78.4786 64.9375 74.898 64.9375 70.5625V62.125C64.9375 60.0572 63.2553 58.375 61.1875 58.375C60.6698 58.375 60.25 58.7948 60.25 59.3125C60.25 59.8302 60.6698 60.25 61.1875 60.25C62.2213 60.25 63.0625 61.0912 63.0625 62.125V70.5625C63.0625 74.1811 60.1185 77.125 56.5 77.125C52.8815 77.125 49.9375 74.1811 49.9375 70.5625V62.125C49.9375 61.0912 50.7787 60.25 51.8125 60.25C52.3302 60.25 52.75 59.8302 52.75 59.3125C52.75 58.7948 52.3302 58.375 51.8125 58.375C49.7447 58.375 48.0625 60.0572 48.0625 62.125V70.5625C48.0625 74.898 51.3498 78.4786 55.5625 78.9467V84.1562C55.5625 89.5844 59.9781 94 65.4062 94C70.8344 94 75.25 89.5844 75.25 84.1562V78.9215C77.9066 78.475 79.9375 76.1582 79.9375 73.375ZM75.25 74.9969C74.0008 75.7252 72.4375 74.8084 72.4375 73.375C72.4375 72.3414 73.2789 71.5 74.3125 71.5C75.3461 71.5 76.1875 72.3414 76.1875 73.375C76.1875 74.0676 75.8102 74.6734 75.25 74.9969Z" fill="#476FE4"></path><defs><linearGradient id="paint0_linear_422_1210" x1="64" y1="0" x2="64" y2="128" gradientUnits="userSpaceOnUse"><stop stop-color="#ECF9FF"></stop><stop offset="1" stop-color="#B4E6FF"></stop></linearGradient></defs></svg>