<svg xmlns="http://www.w3.org/2000/svg" width="128" height="128" viewBox="0 0 128 128" fill="none"><circle cx="63.9995" cy="64" r="64" fill="url(#paint0_linear_422_1189)"></circle><g clip-path="url(#clip0_422_1189)"><path d="M46.1473 65.4035C46.2565 66.6145 46.9381 67.7539 48.0787 68.3927C49.0256 68.9231 50.0015 69.3131 50.9984 69.5771C50.4367 71.4728 49.4046 74.2162 47.5676 77.1543C45.8227 79.9467 45.802 83.3163 47.5127 86.4005C50.033 90.9457 55.5979 94.0001 61.3625 94.0001C65.3216 94.0001 68.8414 92.1768 71.2726 88.8658C74.7475 84.132 75.5175 77.1459 73.3311 70.1818C71.3045 63.7261 74.0149 60.282 75.8083 58.8016C77.2704 60.2107 79.2535 61.0796 81.4453 61.0796C85.9362 61.0796 89.5794 57.4374 89.5794 52.9442C89.5794 48.451 85.9362 44.8099 81.4453 44.8099C76.9521 44.8099 73.3109 48.4521 73.3109 52.9442C73.3109 53.5769 73.3897 54.1891 73.5261 54.7802C70.1394 57.2575 66.2298 62.8335 68.9658 71.5515C70.6912 77.0488 70.1618 82.645 67.5823 86.1576C66.4888 87.6485 64.5205 89.425 61.3613 89.425C57.2739 89.425 53.2239 87.2684 51.5135 84.1822C50.8826 83.0438 50.3602 81.3195 51.4481 79.5783C53.8779 75.6889 55.094 72.0595 55.6707 69.8412C57.0211 69.6378 58.3396 69.2022 59.608 68.5249C60.7385 67.9211 61.4322 66.8284 61.5851 65.6475C66.9593 60.789 69.4407 52.035 69.5834 51.5227C69.8732 50.4717 69.378 49.3928 68.4547 48.9008C69.197 42.329 66.7646 39.0167 65.2969 37.6675C65.4088 37.0361 65.1562 36.3607 64.6016 35.9987L61.9047 34.2362C61.2002 33.7761 60.3146 34.0083 59.9286 34.758L58.6436 37.2414C58.2565 37.9912 58.5977 38.7909 59.4062 39.0294L62.4552 39.9282C63.2283 40.1561 64.1544 39.7867 64.5921 39.1092C65.8072 40.3893 67.557 43.2392 66.9542 48.6758C66.1256 48.8336 65.4154 49.4372 65.1748 50.3051C64.4422 52.9346 62.3263 58.3658 59.1847 61.6226C58.1848 61.2361 57.0351 61.2552 56.0154 61.7982C55.3513 62.153 54.7018 62.3317 54.0352 62.3457H53.8978C53.1955 62.3307 52.5096 62.1326 51.8072 61.7398C50.8126 61.1818 49.6798 61.1327 48.6809 61.4852C45.6097 58.2151 43.5388 52.8988 42.8184 50.3055C42.5771 49.4399 41.8641 48.8348 41.0383 48.6773C40.4345 43.2407 42.1837 40.3908 43.4004 39.1107C43.8385 39.7879 44.7636 40.1575 45.5367 39.9294L48.5857 39.0307C49.3929 38.7921 49.7364 37.9912 49.3483 37.2426L48.0643 34.759C47.6772 34.0091 46.7916 33.7771 46.0883 34.2372L43.3887 36.001C42.8344 36.363 42.5825 37.0382 42.6937 37.6698C41.2284 39.0192 38.7939 42.33 39.5365 48.9029C38.6127 49.3951 38.1191 50.4738 38.4076 51.526C38.5479 52.0276 40.9546 60.5025 46.1473 65.4035ZM81.4453 49.7667C83.198 49.7667 84.6218 51.1885 84.6218 52.9447C84.6218 54.6996 83.198 56.1224 81.4453 56.1224C79.6901 56.1224 78.2673 54.6996 78.2673 52.9447C78.2673 51.1883 79.6891 49.7667 81.4453 49.7667Z" fill="#FE5F85"></path></g><defs><linearGradient id="paint0_linear_422_1189" x1="63.9995" y1="0" x2="63.9995" y2="128" gradientUnits="userSpaceOnUse"><stop stop-color="#FEEBEE"></stop><stop offset="1" stop-color="#FFB6C8"></stop></linearGradient><clipPath id="clip0_422_1189"><rect width="60" height="60" fill="white" transform="translate(33.9526 34)"></rect></clipPath></defs></svg>