<svg xmlns="http://www.w3.org/2000/svg" width="128" height="128" viewBox="0 0 128 128" fill="none"><circle cx="64" cy="64" r="64" fill="url(#paint0_linear_422_1199)"></circle><path d="M86.8888 83.6607C86.7554 75.5065 78.4182 73.0973 72.3305 71.3382C71.6203 71.133 70.9372 70.9355 70.2971 70.7384V67.3745C71.5416 66.5944 72.6322 65.5905 73.5119 64.4194H77.2202C79.0349 64.4194 80.5113 62.943 80.5113 61.1283V57.1444C80.7313 56.6316 80.8535 56.0672 80.8535 55.4746V54.2355C80.8535 53.6435 80.7313 53.0795 80.5113 52.567V50.5118C80.5113 41.4072 73.1043 34 63.9999 34C54.8972 34 47.4917 41.4072 47.4917 50.5119V52.5083C47.4917 52.524 47.4935 52.5391 47.4941 52.5547C47.2707 53.0706 47.1463 53.6387 47.1463 54.2357V55.4747C47.1463 57.8169 49.0503 59.7225 51.3907 59.7225H52.3591C53.0299 62.9391 55.0046 65.6825 57.7027 67.374V70.7384C57.0625 70.9355 56.3795 71.1329 55.6692 71.3382C49.5815 73.0973 41.2443 75.5066 41.111 83.6607C41.1108 83.6672 41.1108 83.6735 41.1108 83.68V92.8281C41.1108 93.4753 41.6356 94 42.2827 94H45.7571C46.4042 94 46.929 93.4753 46.929 92.8281C46.929 92.1809 46.4042 91.6562 45.7571 91.6562H43.4545V83.6897C43.5038 80.8447 44.8107 78.712 47.5671 76.9782C49.386 75.8341 51.6096 75.019 53.8015 74.337L56.6329 79.8535C56.9484 80.4684 57.7565 80.6774 58.3307 80.29L59.5931 79.4383L60.677 83.5121L58.8199 91.6561H56.2802C55.6331 91.6561 55.1084 92.1808 55.1084 92.828C55.1084 93.4752 55.6331 93.9999 56.2802 93.9999H85.717C86.3641 93.9999 86.8889 93.4752 86.8889 92.828V83.6798C86.8889 83.6735 86.8889 83.6672 86.8888 83.6607ZM71.6799 73.5897C71.7571 73.612 71.8357 73.6348 71.9135 73.6573L69.8876 77.6082L66.0965 75.0518L69.3087 72.8851C70.055 73.1199 70.8486 73.3495 71.6799 73.5897ZM64.0007 76.4654L66.3506 78.05L65.2149 82.3187H62.7849L61.6496 78.0513L64.0007 76.4654ZM64.0005 73.6385L60.0463 70.9721V68.5051C61.2839 68.9428 62.6141 69.1829 63.9998 69.1829C65.3853 69.1829 66.7157 68.9436 67.9532 68.5059V70.9721L64.0005 73.6385ZM73.5471 50.7262C73.531 50.716 73.5151 50.7058 73.499 50.6957C71.0944 49.1649 69.0176 47.8429 65.7636 48.774C65.7333 48.7827 65.7033 48.7925 65.6739 48.8035C64.984 49.0626 64.3567 49.3042 63.7499 49.5377C60.0441 50.9642 58.0207 51.7433 54.4526 51.643V50.7046C54.4526 45.44 58.7354 41.157 63.9998 41.157C69.2641 41.157 73.547 45.44 73.547 50.7046V50.7262H73.5471ZM78.1676 61.1283C78.1676 61.6507 77.7426 62.0757 77.2202 62.0757H74.8849C75.2147 61.3281 75.4701 60.5407 75.6407 59.7224H76.6092C77.1594 59.7224 77.6847 59.616 78.1677 59.4244V61.1283H78.1676ZM78.5097 55.4746C78.5097 56.5245 77.6572 57.3786 76.6091 57.3786H75.8898C75.89 57.3496 75.8909 52.3348 75.8909 52.3348H76.6092C77.6572 52.3348 78.5099 53.1874 78.5099 54.2355V55.4746H78.5097ZM51.3907 57.3788C50.3427 57.3788 49.49 56.5246 49.49 55.4747V54.2357C49.49 53.1875 50.3426 52.3349 51.3907 52.3349H52.1089C52.1089 52.3349 52.1099 57.3497 52.1101 57.3788H51.3907ZM52.1308 49.991H51.3906C50.8427 49.991 50.3195 50.0965 49.8383 50.2863C49.9594 42.5777 56.265 36.3438 63.9999 36.3438C71.737 36.3438 78.0444 42.5784 78.1646 50.2876C77.6826 50.0969 77.1581 49.991 76.6091 49.991H75.8688C75.4985 43.765 70.3169 38.8133 63.9999 38.8133C57.6827 38.8133 52.5012 43.7652 52.1308 49.991ZM54.5231 58.4317C54.523 58.4305 54.5228 58.4294 54.5227 58.4282C54.4782 58.0552 54.4527 57.6764 54.4527 57.2917V53.9866C58.462 54.0844 60.8537 53.1642 64.5919 51.7251C65.1807 51.4985 65.7892 51.2642 66.4522 51.015C68.6658 50.3971 69.9396 51.2081 72.2404 52.6728C72.6397 52.927 73.0776 53.2056 73.5471 53.4916V57.2917C73.5471 59.0344 73.0755 60.668 72.2567 62.0758H63.9999C63.3528 62.0758 62.828 62.6004 62.828 63.2477C62.828 63.8949 63.3528 64.4195 63.9999 64.4195H70.3426C68.6548 65.9232 66.4327 66.8392 63.9999 66.8392C59.1215 66.8391 55.0886 63.1603 54.5231 58.4317ZM58.1149 77.6083L56.0869 73.6571C56.1645 73.6347 56.2427 73.612 56.3198 73.5897C57.1512 73.3495 57.9448 73.1198 58.6913 72.885L61.9048 75.052L58.1149 77.6083ZM61.2239 91.6562L62.8187 84.6625H65.1814L66.7786 91.6562H61.2239ZM84.5452 91.6562H69.1828L67.3227 83.512L68.4071 79.4367L69.6726 80.2901C70.2471 80.6774 71.0551 80.4684 71.3705 79.8532L74.1987 74.3373C76.3905 75.0192 78.614 75.8342 80.4328 76.9782C83.1891 78.7119 84.4961 80.8447 84.5454 83.6897V91.6562H84.5452Z" fill="#047D37"></path><path d="M79.9176 85.7964H74.0117C73.3646 85.7964 72.8398 86.321 72.8398 86.9683C72.8398 87.6155 73.3646 88.1401 74.0117 88.1401H79.9176C80.5647 88.1401 81.0895 87.6155 81.0895 86.9683C81.0895 86.321 80.5648 85.7964 79.9176 85.7964Z" fill="#047D37"></path><path d="M51.0187 91.6562C50.3716 91.6562 49.8468 92.1809 49.8468 92.8281C49.8468 93.4754 50.3716 94 51.0187 94H51.022C51.6691 94 52.1921 93.4754 52.1921 92.8281C52.1921 92.1809 51.6658 91.6562 51.0187 91.6562Z" fill="#047D37"></path><defs><linearGradient id="paint0_linear_422_1199" x1="64" y1="0" x2="64" y2="128" gradientUnits="userSpaceOnUse"><stop stop-color="#F6FFF1"></stop><stop offset="1" stop-color="#D2FFA7"></stop></linearGradient></defs></svg>