<svg xmlns="http://www.w3.org/2000/svg" width="35" height="29" viewBox="0 0 35 29" fill="none"><path d="M10.9456 12.944C10.1033 12.7015 9.26097 12.5785 8.44162 12.5785C7.17637 12.5785 6.12061 12.8676 5.30198 13.2217C6.0912 10.3324 7.9871 5.34708 11.7639 4.78566C12.1136 4.73364 12.4002 4.48074 12.4957 4.1403L13.3211 1.1879C13.3907 0.938223 13.3495 0.670965 13.207 0.454289C13.0646 0.237613 12.8358 0.093042 12.5793 0.0578859C12.3005 0.0198599 12.0164 0.000488281 11.7348 0.000488281C7.20148 0.000488281 2.71193 4.73221 0.817453 11.5073C-0.294621 15.4821 -0.62071 21.4579 2.11858 25.2192C3.65145 27.3239 5.8878 28.4479 8.76556 28.5601C8.7774 28.5605 8.78888 28.5609 8.80071 28.5609C12.3515 28.5609 15.5001 26.1695 16.4579 22.7461C17.0301 20.6995 16.7714 18.5532 15.7289 16.7011C14.6976 14.8697 12.999 13.5349 10.9456 12.944Z" fill="url(#paint0_linear_422_1003)"></path><path d="M33.1723 16.7009C32.141 14.8692 30.4424 13.5343 28.389 12.9435C27.5467 12.701 26.7044 12.578 25.8854 12.578C24.6201 12.578 23.564 12.8671 22.7454 13.2212C23.5346 10.3319 25.4305 5.34658 29.2076 4.78516C29.5574 4.73315 29.8436 4.48024 29.9394 4.1398L30.7649 1.18741C30.8345 0.937733 30.7932 0.670476 30.6508 0.4538C30.5087 0.237124 30.2799 0.0925535 30.023 0.0573975C29.7446 0.0193716 29.4605 0 29.1785 0C24.6452 0 20.1557 4.73171 18.2609 11.5068C17.1491 15.4816 16.8231 21.4574 19.5627 25.2194C21.0952 27.3238 23.3319 28.448 26.2093 28.56C26.2211 28.5603 26.2326 28.5607 26.2448 28.5607C29.7952 28.5607 32.9442 26.1693 33.902 22.7459C34.4734 20.6994 34.2144 18.5527 33.1723 16.7009Z" fill="url(#paint1_linear_422_1003)"></path><defs><linearGradient id="paint0_linear_422_1003" x1="8.37769" y1="0.000488055" x2="8.37768" y2="28.5609" gradientUnits="userSpaceOnUse"><stop stop-color="#89A7FF"></stop><stop offset="1" stop-color="#476FE4"></stop></linearGradient><linearGradient id="paint1_linear_422_1003" x1="25.8213" y1="-2.26628e-07" x2="25.8213" y2="28.5607" gradientUnits="userSpaceOnUse"><stop stop-color="#89A7FF"></stop><stop offset="1" stop-color="#476FE4"></stop></linearGradient></defs></svg>